<svg width="64" height="64" viewBox="0 0 64 64" xmlns="http://www.w3.org/2000/svg">
  <defs>
    <linearGradient id="mobileGradient" x1="0%" y1="0%" x2="100%" y2="100%">
      <stop offset="0%" style="stop-color:#10B981;stop-opacity:1" />
      <stop offset="100%" style="stop-color:#059669;stop-opacity:1" />
    </linearGradient>
  </defs>
  
  <!-- Fondo circular -->
  <circle cx="32" cy="32" r="30" fill="url(#mobileGradient)"/>
  
  <!-- Teléfono móvil -->
  <rect x="20" y="8" width="24" height="48" rx="3" fill="white" opacity="0.9"/>
  <rect x="22" y="10" width="20" height="44" fill="#1F2937"/>
  
  <!-- Pantalla del teléfono -->
  <rect x="24" y="12" width="16" height="28" fill="#10B981" opacity="0.3"/>
  
  <!-- Botón home -->
  <circle cx="32" cy="44" r="2" fill="white" opacity="0.7"/>
  
  <!-- Aplicaciones en pantalla -->
  <rect x="26" y="14" width="4" height="4" fill="white" opacity="0.8"/>
  <rect x="32" y="14" width="4" height="4" fill="white" opacity="0.8"/>
  <rect x="38" y="14" width="4" height="4" fill="white" opacity="0.8"/>
  <rect x="26" y="20" width="4" height="4" fill="white" opacity="0.8"/>
  <rect x="32" y="20" width="4" height="4" fill="white" opacity="0.8"/>
  <rect x="38" y="20" width="4" height="4" fill="white" opacity="0.8"/>
  <rect x="26" y="26" width="4" height="4" fill="white" opacity="0.8"/>
  <rect x="32" y="26" width="4" height="4" fill="white" opacity="0.8"/>
  <rect x="38" y="26" width="4" height="4" fill="white" opacity="0.8"/>
</svg> 